# Blender v2.79 (sub 0) OBJ File: ''
# www.blender.org
o Plane.004
v -1.644493 1.006649 2.354927
v 1.742107 1.006649 2.954926
v 1.742108 1.006649 2.354927
v 1.742107 2.006649 2.954926
v -1.644493 2.006649 2.354927
v 1.742107 2.006649 2.354927
v -1.644493 1.006649 2.954926
v -1.644493 2.006649 2.954926
vn 0.0000 -1.0000 -0.0000
vn -0.0000 1.0000 0.0000
vn -0.0000 0.0000 1.0000
vn 0.0000 0.0000 -1.0000
vn -1.0000 -0.0000 -0.0000
vn 1.0000 0.0000 0.0000
s 1
f 1//1 3//1 2//1
f 4//2 6//2 5//2
f 7//3 2//3 4//3
f 3//4 1//4 5//4
f 1//5 7//5 8//5
f 2//6 3//6 6//6
f 1//1 2//1 7//1
f 4//2 5//2 8//2
f 7//3 4//3 8//3
f 3//4 5//4 6//4
f 1//5 8//5 5//5
f 2//6 6//6 4//6
