# Blender v2.79 (sub 0) OBJ File: ''
# www.blender.org
o Plane
v -2.808840 0.013284 2.896403
v 2.931393 0.013284 2.896403
v -2.808840 0.013284 -2.843830
v 2.931393 0.013284 -2.843830
v -2.808840 1.013284 2.896403
v 2.931393 1.013284 2.896403
v -2.808840 1.013284 -2.843830
v 2.931393 1.013284 -2.843830
vn 0.0000 -1.0000 0.0000
vn 0.0000 1.0000 0.0000
vn 1.0000 0.0000 0.0000
vn -1.0000 0.0000 0.0000
vn 0.0000 0.0000 -1.0000
vn 0.0000 0.0000 1.0000
s off
f 3//1 2//1 1//1
f 6//2 7//2 5//2
f 4//3 6//3 2//3
f 1//4 7//4 3//4
f 3//5 8//5 4//5
f 2//6 5//6 1//6
f 3//1 4//1 2//1
f 6//2 8//2 7//2
f 4//3 8//3 6//3
f 1//4 5//4 7//4
f 3//5 7//5 8//5
f 2//6 6//6 5//6
